<?xml version="1.0" standalone="no"?><!DOCTYPE svg PUBLIC "-//W3C//DTD SVG 1.1//EN" "http://www.w3.org/Graphics/SVG/1.1/DTD/svg11.dtd"><svg t="1600392318490" class="icon" viewBox="0 0 1024 1024" version="1.1" xmlns="http://www.w3.org/2000/svg" p-id="2085" xmlns:xlink="http://www.w3.org/1999/xlink" width="200" height="200"><defs><style type="text/css"></style></defs><path d="M499.482 601.985c-151.597 0-270.348-125.251-270.348-285.156 0-154.257 127.54-279.769 284.305-279.769 156.743 0 284.24 125.491 284.24 279.769 0 73.17-28.549 142.371-80.367 194.888-8.506 8.571-22.289 8.636-30.838 0.196-8.593-8.462-8.658-22.267-0.218-30.838 43.728-44.272 67.783-102.612 67.783-164.224 0-130.201-107.934-236.151-240.622-236.151-132.71 0-240.687 105.927-240.687 236.151 0 135.436 99.581 241.537 226.729 241.537 12.038 0 21.809 9.749 21.809 21.809s-9.749 21.787-21.787 21.787zM929.691 992c-12.061 0-21.809-9.749-21.809-21.809 0-203.524-175.957-369.1-392.24-369.1-216.282 0-392.261 165.576-392.261 369.1 0 12.061-9.771 21.809-21.809 21.809s-21.809-9.749-21.809-21.809c0-227.58 195.542-412.718 435.88-412.718 240.338 0 435.858 185.138 435.858 412.718 0 12.038-9.749 21.809-21.809 21.809z" p-id="2086" fill="#C62F2F"></path></svg>