<?xml version="1.0" standalone="no"?><!DOCTYPE svg PUBLIC "-//W3C//DTD SVG 1.1//EN" "http://www.w3.org/Graphics/SVG/1.1/DTD/svg11.dtd"><svg t="1598540442738" class="icon" viewBox="0 0 1065 1024" version="1.1" xmlns="http://www.w3.org/2000/svg" p-id="7555" xmlns:xlink="http://www.w3.org/1999/xlink" width="208.0078125" height="200"><defs><style type="text/css"></style></defs><path d="M443.38169 375.466667C476.371558 375.466667 503.115026 348.7232 503.115026 315.733333 503.115026 282.743467 476.371558 256 443.38169 256 410.391825 256 383.648358 282.743467 383.648358 315.733333 383.648358 348.7232 410.391825 375.466667 443.38169 375.466667" p-id="7556" fill="#1296db"></path><path d="M631.115026 256C598.125158 256 571.38169 282.743467 571.38169 315.733333 571.38169 348.7232 598.125158 375.466667 631.115026 375.466667 664.10489 375.466667 690.848358 348.7232 690.848358 315.733333 690.848358 282.743467 664.10489 256 631.115026 256" p-id="7557" fill="#1296db"></path><path d="M800.70649 585.216C807.191826 561.885868 810.929426 537.3952 810.929426 512L810.315026 512 810.315026 273.066667 810.929426 273.066667C810.929426 122.248533 688.68089 0 537.862758 0 387.044625 0 264.796092 122.248533 264.796092 273.066667L264.181692 273.066667 264.181692 512 264.796092 512C264.796092 537.173332 268.482492 561.442132 274.848358 584.567468 125.429692 673.979732 25.248358 837.205332 25.248358 1024L93.515025 1024C93.515025 865.911468 176.817425 727.159468 301.625958 648.5504 348.866492 730.077868 436.845158 785.066668 537.862758 785.066668 638.641426 785.066668 726.449426 730.3168 773.758226 649.096532 898.08889 727.808 980.98169 866.286932 980.98169 1024L1049.248358 1024C1049.248358 837.649068 949.54489 674.7648 800.70649 585.216M537.862758 716.8C424.932625 716.8 333.062758 624.930132 333.062758 512L332.448358 512 332.448358 273.066667 333.062758 273.066667C333.062758 160.136533 424.932625 68.266667 537.862758 68.266667 650.79289 68.266667 742.662758 160.136533 742.662758 273.066667L742.048358 273.066667 742.048358 512 742.662758 512C742.662758 624.930132 650.79289 716.8 537.862758 716.8" p-id="7558" fill="#1296db"></path><path d="M537.248358 546.133332C499.59929 546.133332 468.98169 515.515732 468.98169 477.866668L400.715025 477.866668C400.715025 553.147732 461.96729 614.4 537.248358 614.4 612.529426 614.4 673.78169 553.147732 673.78169 477.866668L605.515026 477.866668C605.515026 515.515732 574.897426 546.133332 537.248358 546.133332" p-id="7559" fill="#1296db"></path></svg>