<?xml version="1.0" standalone="no"?><!DOCTYPE svg PUBLIC "-//W3C//DTD SVG 1.1//EN" "http://www.w3.org/Graphics/SVG/1.1/DTD/svg11.dtd"><svg t="1599876761625" class="icon" viewBox="0 0 1024 1024" version="1.1" xmlns="http://www.w3.org/2000/svg" p-id="6055" xmlns:xlink="http://www.w3.org/1999/xlink" width="200" height="200"><defs><style type="text/css"></style></defs><path d="M217.6 204.8h460.8c15.36 0 25.6-10.24 25.6-25.6s-10.24-25.6-25.6-25.6H217.6c-15.36 0-25.6 10.24-25.6 25.6s10.24 25.6 25.6 25.6z m0 153.6h460.8c15.36 0 25.6-10.24 25.6-25.6s-10.24-25.6-25.6-25.6H217.6c-15.36 0-25.6 10.24-25.6 25.6s10.24 25.6 25.6 25.6zM832 128c-15.36 0-25.6 10.24-25.6 25.6v419.84c-56.32-43.52-151.04-43.52-232.96 5.12-102.4 58.88-148.48 168.96-104.96 248.32 43.52 81.92 163.84 92.16 268.8 33.28 79.36-46.08 125.44-122.88 122.88-189.44V153.6C857.6 138.24 847.36 128 832 128zM716.8 816.64c-76.8 46.08-171.52 43.52-207.36-10.24-35.84-53.76 0-143.36 76.8-189.44 76.8-46.08 174.08-43.52 209.92 10.24 38.4 56.32-2.56 143.36-79.36 189.44zM217.6 512h281.6c15.36 0 25.6-10.24 25.6-25.6s-10.24-25.6-25.6-25.6H217.6c-15.36 0-25.6 10.24-25.6 25.6s10.24 25.6 25.6 25.6z m153.6 102.4H217.6c-15.36 0-25.6 10.24-25.6 25.6s10.24 25.6 25.6 25.6h153.6c15.36 0 25.6-10.24 25.6-25.6s-10.24-25.6-25.6-25.6z" p-id="6056" fill="#ffffff"></path></svg>