<?xml version="1.0" standalone="no"?><!DOCTYPE svg PUBLIC "-//W3C//DTD SVG 1.1//EN" "http://www.w3.org/Graphics/SVG/1.1/DTD/svg11.dtd"><svg t="1598673384177" class="icon" viewBox="0 0 1024 1024" version="1.1" xmlns="http://www.w3.org/2000/svg" p-id="2052" xmlns:xlink="http://www.w3.org/1999/xlink" width="200" height="200"><defs><style type="text/css"></style></defs><path d="M416 720c-17.67 0-32-14.33-32-32V336c0-17.67 14.33-32 32-32s32 14.33 32 32v352c0 17.67-14.33 32-32 32zM608 720c-17.67 0-32-14.33-32-32V336c0-17.67 14.33-32 32-32s32 14.33 32 32v352c0 17.67-14.33 32-32 32z" p-id="2053" fill="#ffffff"></path><path d="M512 128c211.74 0 384 172.26 384 384S723.74 896 512 896 128 723.74 128 512s172.26-384 384-384m0-64C264.58 64 64 264.58 64 512s200.58 448 448 448 448-200.58 448-448S759.42 64 512 64z" p-id="2054" fill="#ffffff"></path></svg>